<?xml version="1.0" encoding="utf-8"?>
<!-- Generator: Adobe Illustrator 25.2.1, SVG Export Plug-In . SVG Version: 6.00 Build 0)  -->
<svg version="1.1" id="Camada_1" xmlns="http://www.w3.org/2000/svg" xmlns:xlink="http://www.w3.org/1999/xlink" x="0px" y="0px"
	 viewBox="0 0 324 227.4" style="enable-background:new 0 0 324 227.4;" xml:space="preserve">
<style type="text/css">
	.st0{fill-rule:evenodd;clip-rule:evenodd;fill:#E81CFF;}
	.st1{fill-rule:evenodd;clip-rule:evenodd;fill:#40C9FF;}
</style>
<path class="st0" d="M183.3,117.5c2.2-2.6,4.8-0.3,7.6,7c6.4,16.1,8.4,30.6,17.3,46.8c10.4,19.6,29.4,21.1,37.1-3.2
	c5.2-16.5,12.6-37.4,21.4-51.5c2.7-4.5,5.7-7.6,7.9-4.8c1-20.5-9.9-27.2-26.2-5c-2.4,4-4.5,8.1-6.3,12.4
	c-11.3,26.4-19.3,16.6-27.1-6.6c-1.3-3.5-2.5-6.8-3.7-9.8C194.7,76.1,178.7,92.4,183.3,117.5L183.3,117.5z"/>
<path class="st1" d="M163.4,179.4c5.5-17.5,13.2-44.1,19.9-61.9c4.1-10.7,17.3-31.9,28-14.7c-15.7-37.5-36.2-35.1-51.5,11
	c-8.3,25-11.2,43.1-27.3,3c-20.6-40.6-45.1-45.7-60-24.4c7,0.9,13.2,5.7,18.2,16c12.2,24.6,25.7,47.5,37.5,72.6
	C139.1,203.9,155.5,204.4,163.4,179.4L163.4,179.4z"/>
<path class="st0" d="M72.5,92.4c23.1-3.6,45.5-2.7,60,24.4C110.8,63,78.3,38.3,35.5,45C-1,50.8-1.8,106,48.7,96.8
	C56.4,95.3,64.5,93.5,72.5,92.4L72.5,92.4z"/>
<path class="st1" d="M274.6,111.8c4.3,10.2,5.7,22.6,10.2,31.2c13.2,25,42.2,6.8,27.7-20.8c-17.3-33.4-43.8-48.1-64.1-15.5
	C259.4,92.4,269,98,274.6,111.8L274.6,111.8z"/>
</svg>
