<?xml version="1.0" standalone="no"?>
<!DOCTYPE svg PUBLIC "-//W3C//DTD SVG 20010904//EN"
 "http://www.w3.org/TR/2001/REC-SVG-20010904/DTD/svg10.dtd">
<svg version="1.0" xmlns="http://www.w3.org/2000/svg"
 width="1012.000000pt" height="949.000000pt" viewBox="0 0 1012.000000 949.000000"
 preserveAspectRatio="xMidYMid meet">

<g transform="translate(0.000000,949.000000) scale(0.100000,-0.100000)"
fill="#000000" stroke="none">
<path d="M5162 9368 c6 -18 15 -41 19 -50 12 -24 11 -65 -2 -90 -10 -19 -12
-19 -32 13 l-21 34 -6 -35 c-3 -20 -8 -30 -13 -23 -4 6 -16 9 -27 6 -25 -7
-27 17 -4 53 9 13 14 27 10 31 -3 3 -6 2 -6 -4 0 -20 -61 -75 -77 -69 -11 4
-13 2 -10 -9 10 -24 -14 -29 -30 -6 -12 18 -21 21 -46 15 -44 -9 -52 -15 -33
-26 9 -5 16 -14 16 -19 0 -12 -108 -7 -128 5 -6 4 -24 -2 -39 -13 -16 -10 -52
-22 -81 -25 -45 -4 -53 -3 -50 11 5 24 68 53 118 53 33 0 41 3 30 10 -25 16
-117 12 -124 -5 -6 -16 -36 -21 -36 -5 0 5 8 14 18 20 14 9 12 10 -13 5 -16
-3 -35 -13 -41 -21 -15 -19 -38 -18 -30 1 3 8 1 15 -5 15 -18 0 -88 -39 -121
-69 -31 -27 -70 -51 -82 -51 -3 0 -6 5 -6 11 0 5 6 7 13 3 11 -7 -9 23 -24 36
-3 3 -11 14 -17 25 -8 15 -11 16 -12 4 0 -8 5 -20 11 -26 23 -23 4 -35 -23
-13 -16 12 -25 27 -21 35 3 8 0 15 -7 15 -6 0 -8 -5 -4 -11 5 -8 -1 -10 -19
-7 l-27 5 30 -30 c21 -21 30 -41 30 -63 0 -18 5 -36 10 -39 16 -10 -8 -35 -31
-35 -17 0 -19 7 -16 59 3 59 3 59 -15 36 -10 -13 -18 -28 -18 -34 0 -5 -8 -15
-17 -20 -17 -10 -16 -11 4 -17 24 -7 31 -26 25 -61 -6 -30 -16 -29 -32 5 -8
15 -25 39 -37 53 -13 14 -32 48 -43 75 -24 60 -26 35 -3 -35 9 -28 13 -54 10
-57 -3 -3 -20 4 -37 16 -22 15 -28 25 -20 30 9 5 9 9 1 14 -6 4 -11 2 -11 -3
0 -6 -7 -11 -15 -11 -8 0 -15 -6 -16 -12 0 -7 -2 -43 -3 -79 -2 -36 -6 -71
-10 -78 -15 -23 -25 1 -21 47 l5 47 -14 -37 c-12 -29 -13 -51 -6 -95 10 -60 7
-74 -12 -55 -19 19 -29 14 -16 -8 16 -25 6 -35 -21 -21 -17 10 -20 9 -15 -4 4
-9 0 -15 -9 -15 -8 0 -20 14 -26 30 -5 17 -18 33 -28 37 -10 3 -26 13 -35 21
-16 13 -18 13 -18 -1 0 -9 5 -19 10 -22 17 -11 12 -82 -6 -89 -14 -6 -15 -9
-3 -24 27 -33 39 -61 33 -77 -4 -11 -10 -12 -18 -6 -16 13 -56 2 -56 -15 0 -7
-7 -17 -15 -21 -8 -5 -17 -26 -20 -48 -3 -24 -1 -35 4 -27 6 11 13 7 30 -16
38 -53 25 -81 -37 -83 l-27 -1 25 -7 c27 -8 29 -33 5 -61 -18 -22 -27 -90 -30
-230 -2 -68 -7 -154 -11 -190 -4 -36 -8 -81 -10 -100 -1 -19 -6 -69 -12 -110
-13 -92 -17 -193 -10 -206 4 -5 2 -31 -3 -57 -8 -47 -4 -77 12 -77 4 0 4 -13
-2 -28 -5 -15 -9 -37 -8 -47 1 -11 1 -48 1 -81 l-2 -62 -44 -11 c-54 -13 -73
-40 -91 -129 -20 -93 -18 -191 6 -361 36 -252 89 -378 182 -431 28 -16 75 -34
104 -40 l51 -11 12 -72 c16 -95 30 -150 75 -282 l37 -110 10 -527 c6 -290 7
-539 4 -553 -9 -36 -63 -93 -126 -134 -51 -32 -60 -35 -122 -33 -70 3 -102 -8
-163 -54 -56 -42 -219 -113 -362 -157 -88 -27 -168 -60 -210 -84 -37 -22 -120
-62 -183 -89 -63 -27 -150 -72 -192 -101 -43 -29 -79 -53 -82 -53 -2 0 -62
-28 -132 -61 -156 -74 -235 -108 -378 -160 -61 -21 -138 -57 -172 -78 -35 -22
-84 -49 -109 -60 -41 -18 -49 -27 -75 -88 -17 -37 -44 -95 -61 -128 -17 -33
-50 -98 -74 -145 -101 -198 -218 -647 -265 -1015 -6 -44 -15 -186 -20 -315 -6
-129 -15 -262 -20 -295 -6 -33 -15 -161 -19 -285 -7 -165 -13 -237 -25 -269
-9 -24 -16 -55 -16 -70 0 -40 -27 -160 -50 -218 -11 -29 -17 -53 -12 -53 4 0
60 13 125 30 524 132 1029 188 1597 177 673 -14 1229 -110 1950 -337 1092
-345 1572 -458 2215 -525 210 -22 689 -30 905 -16 400 27 783 94 1175 204
l120 34 -2 101 c-2 55 -14 165 -28 244 -14 78 -31 177 -37 220 l-12 76 32 36
c18 20 32 41 32 46 0 5 -9 43 -20 84 -29 104 -50 239 -50 321 0 77 -2 91 -59
387 -22 114 -43 245 -47 290 -6 76 -5 85 15 102 17 16 21 31 21 88 0 67 -20
138 -38 138 -5 0 -12 22 -15 49 -3 28 -18 81 -33 118 -14 37 -42 107 -61 156
-33 84 -125 256 -144 268 -5 3 -53 93 -107 200 -112 221 -139 266 -264 433
-171 229 -226 267 -448 316 -47 10 -136 30 -197 44 -131 30 -307 94 -508 186
-108 50 -381 158 -492 196 -88 30 -123 48 -192 100 l-84 64 -91 -7 c-50 -3
-93 -7 -94 -9 -2 -1 30 -18 71 -37 41 -19 77 -39 80 -44 14 -22 -28 -131 -97
-252 -92 -160 -138 -228 -238 -354 -43 -54 -99 -128 -125 -165 -60 -87 -100
-129 -144 -152 -19 -10 -55 -35 -80 -56 -40 -33 -313 -174 -338 -174 -10 0
-15 14 -12 33 1 4 -5 10 -13 13 -9 3 -12 12 -9 21 4 11 2 14 -5 9 -8 -4 -12 0
-13 11 0 10 -3 27 -6 38 -2 11 -4 30 -4 43 1 15 -7 26 -24 32 -17 6 -23 14
-18 25 4 11 9 13 16 6 7 -7 18 0 34 24 33 48 89 75 157 75 30 0 58 5 61 10 3
6 13 10 21 10 8 0 12 -5 9 -10 -4 -6 19 -10 63 -10 54 0 73 4 90 20 12 11 25
20 29 20 15 0 153 139 153 153 0 8 -9 17 -20 20 -11 3 -20 13 -20 22 0 15 2
16 17 4 15 -13 16 -10 10 33 -4 32 -3 48 6 51 7 3 3 6 -9 6 -11 1 -25 -4 -31
-10 -9 -9 -12 -6 -11 12 1 13 6 30 11 36 7 10 4 13 -11 13 -30 0 -41 56 -15
75 19 14 13 20 -31 27 -18 3 -18 4 -3 19 9 9 13 19 10 23 -4 3 -2 6 4 6 6 0
13 11 15 24 4 17 1 23 -9 19 -16 -6 -17 9 -2 24 14 14 3 83 -13 83 -7 0 -7 4
1 14 6 7 10 32 8 55 -2 23 0 44 5 47 4 3 8 12 8 20 0 8 -4 13 -9 9 -13 -7 -34
33 -27 51 3 8 0 14 -6 14 -8 0 -6 6 4 16 13 13 14 21 5 35 -9 15 -8 21 8 33
17 12 17 16 5 31 -12 14 -12 18 0 25 9 6 13 26 13 62 -1 36 1 45 6 28 10 -37
16 -14 16 65 0 62 -2 70 -19 68 -15 -1 -17 4 -12 28 4 22 2 29 -9 29 -8 0 -15
7 -15 15 0 7 -7 18 -16 23 -14 8 -14 13 -4 33 7 13 22 31 34 41 20 17 20 19 4
32 -22 16 -24 46 -3 46 8 0 15 5 15 10 0 6 -6 10 -14 10 -16 0 -29 27 -20 42
3 5 -1 17 -10 27 -18 19 -14 44 12 74 13 15 13 23 2 58 -12 35 -12 42 1 50 8
5 20 7 27 4 9 -3 10 3 6 23 -4 15 -11 29 -16 30 -14 6 -9 22 7 22 8 0 15 -8
15 -19 0 -16 29 -85 30 -71 21 293 63 653 80 680 5 8 39 13 92 15 87 2 111 10
141 43 17 18 16 19 -27 12 -25 -4 -76 -4 -113 -1 -68 6 -68 6 -65 34 9 72 55
125 91 103 5 -4 12 -2 16 4 3 5 1 10 -4 10 -6 0 -11 6 -11 14 0 15 -27 30 -49
27 -11 -2 -12 6 -8 33 3 20 1 38 -4 42 -5 3 -7 9 -4 14 3 5 1 11 -5 15 -13 8
-13 35 0 35 6 0 10 -6 10 -14 0 -8 6 -18 13 -22 6 -4 9 -4 5 0 -3 4 0 22 7 40
8 18 12 41 10 52 -2 10 -4 27 -4 37 -1 10 -5 15 -11 12 -5 -3 -10 3 -10 15 0
11 7 23 15 26 8 4 15 10 15 15 0 5 -7 9 -15 9 -8 0 -16 7 -16 15 -1 8 -3 20
-4 25 -1 6 -3 15 -4 20 0 6 -6 10 -12 10 -6 0 -9 -6 -6 -14 3 -8 -1 -20 -9
-27 -10 -8 -14 -24 -11 -42 3 -20 -2 -32 -15 -40 -24 -16 -23 -37 2 -37 11 0
20 -5 20 -11 0 -6 -6 -9 -12 -6 -7 2 -21 0 -30 -4 -12 -7 -20 -4 -26 7 -6 11
-11 13 -16 5 -11 -17 -44 -13 -54 5 -11 20 -34 10 -25 -11 3 -9 0 -22 -7 -30
-7 -9 -10 -27 -6 -45 4 -24 2 -30 -12 -30 -10 0 -28 7 -41 17 l-24 16 7 -35
c5 -26 2 -39 -9 -48 -12 -10 -15 -10 -15 4 0 18 -8 20 -29 7 -13 -9 -55 25
-64 52 -2 6 -9 7 -15 3 -8 -5 -10 -16 -6 -29 6 -19 5 -20 -9 -8 -12 10 -14 18
-7 31 14 26 13 29 -10 23 -13 -3 -20 0 -20 9 0 7 -9 20 -20 28 -26 19 -25 29
3 23 21 -4 21 -4 3 11 -10 8 -23 13 -27 10 -5 -3 -9 0 -9 5 0 6 -6 11 -14 11
-8 0 -22 10 -31 23 -10 14 -18 18 -23 11 -9 -14 -42 -3 -61 20 -12 14 -10 20
14 42 15 14 21 25 14 24 -32 -5 -43 0 -31 12 17 17 15 68 -2 68 -8 0 -13 9
-12 24 0 13 4 22 8 20 10 -7 45 30 42 44 -1 7 0 8 3 2 2 -5 16 -10 29 -10 27
0 34 27 9 36 -24 9 -17 24 10 24 14 0 34 9 44 19 15 15 28 18 67 13 45 -5 48
-4 35 11 -12 16 -8 17 43 17 38 0 55 4 54 12 -2 7 2 13 7 13 6 1 24 8 40 15
35 16 40 17 78 19 16 0 26 5 23 10 -3 5 0 14 8 20 23 19 28 71 10 98 -12 19
-13 28 -4 38 10 12 5 21 -21 45 -19 16 -28 30 -22 30 6 0 13 -5 15 -11 2 -5
11 -7 21 -4 15 6 15 9 2 28 -8 12 -15 29 -15 39 0 10 -3 17 -7 16 -14 -3 -63
14 -63 22 0 4 -16 11 -35 14 -22 4 -35 13 -35 22 0 9 -9 18 -20 21 -11 3 -20
10 -20 16 0 8 -3 8 -11 0 -11 -11 -16 -10 -71 19 -13 6 -41 12 -63 13 -59 3
-139 22 -143 34 -2 6 -8 11 -13 11 -6 0 -22 14 -36 30 -13 17 -31 30 -38 30
-13 0 -25 21 -25 43 0 7 4 6 10 -3 5 -8 10 -10 10 -5 0 6 -4 15 -8 21 -8 13
-72 49 -87 49 -5 0 -16 4 -23 9 -9 5 -18 2 -26 -10 -9 -12 -15 -14 -20 -5 -4
6 -12 9 -17 6 -5 -4 -9 0 -9 7 0 8 -9 22 -21 31 -16 14 -24 15 -34 7 -8 -7
-23 -9 -34 -5 -16 5 -22 1 -27 -19 -4 -17 -13 -26 -26 -26 -14 0 -18 -5 -14
-15 3 -8 1 -15 -5 -15 -6 0 -13 9 -16 19 -3 11 -13 21 -24 24 -22 6 -24 25 -4
51 8 11 19 15 27 10 29 -18 48 -11 48 18 0 18 5 28 15 28 8 0 15 8 15 18 1 15
2 15 13 1 10 -14 52 -13 47 1 -1 3 6 23 16 45 10 22 18 47 19 55 0 11 11 14
43 12 23 -1 42 1 42 6 0 17 61 54 78 46 47 -20 70 -6 40 24 -9 9 -8 12 8 12
30 0 74 23 74 39 0 10 9 12 36 6 22 -4 34 -3 30 3 -7 11 21 25 34 17 4 -3 13
2 20 10 9 10 9 15 1 15 -6 0 -11 7 -11 15 0 8 9 15 20 15 11 0 20 -6 20 -14 0
-8 6 -16 13 -19 9 -3 9 -9 1 -24 -14 -24 11 -68 25 -45 6 10 9 9 13 -6 6 -21
-8 -42 -28 -42 -18 0 -27 -32 -12 -42 45 -30 70 -37 115 -33 26 3 42 3 36 -1
-21 -9 -15 -21 14 -29 15 -3 39 -15 54 -26 34 -24 49 -24 49 -1 0 26 11 34 27
21 10 -9 13 -8 13 2 0 35 19 -12 24 -59 3 -29 12 -60 21 -68 17 -17 12 -34
-11 -34 -8 0 -14 -9 -14 -20 0 -10 -8 -24 -17 -30 -17 -10 -17 -10 0 -20 9 -6
17 -17 17 -25 0 -7 15 -23 34 -34 24 -15 36 -31 40 -56 4 -19 12 -40 19 -47
51 -54 67 -126 67 -308 0 -76 4 -150 9 -164 10 -25 36 -176 51 -296 4 -36 15
-91 24 -122 l16 -57 -29 -48 c-52 -87 -49 -124 8 -82 20 15 38 20 57 16 39 -7
104 29 116 65 8 24 13 27 25 16 29 -24 -11 -116 -45 -103 -19 7 -36 -15 -40
-52 -2 -23 1 -33 11 -33 24 0 81 64 116 131 18 35 31 54 28 42 -3 -13 -2 -23
2 -23 8 0 51 146 51 174 0 9 4 16 9 16 10 0 31 109 31 164 0 68 -20 127 -48
137 -32 12 -122 -4 -174 -31 -46 -24 -55 -24 -73 -6 -12 11 -11 17 1 35 8 11
25 21 36 21 12 0 36 11 54 25 18 14 37 25 43 25 6 0 11 14 11 31 0 17 4 28 10
24 14 -9 17 51 6 109 -5 23 -3 27 10 22 16 -6 16 6 -3 68 -3 12 -1 16 6 12 6
-4 11 -1 12 6 3 64 10 145 14 156 2 7 -1 24 -7 38 -9 19 -9 27 0 33 14 8 16
43 6 84 -5 21 -3 27 11 27 13 0 15 6 11 28 -6 26 -12 66 -23 147 -3 22 -6 78
-8 126 -1 47 -7 95 -14 106 -13 26 -14 43 -2 43 5 0 12 -11 15 -25 4 -14 10
-24 14 -21 9 6 8 99 -2 114 -3 6 -1 12 5 14 14 5 -21 68 -38 68 -6 0 -9 8 -6
19 3 10 0 22 -6 25 -19 12 -12 42 13 54 14 6 30 21 37 34 12 22 12 22 -15 5
l-26 -18 -56 61 c-31 33 -62 60 -70 60 -20 0 -17 14 6 35 16 14 23 16 32 7 17
-17 26 -15 24 4 -1 11 13 22 42 31 61 21 52 32 -14 16 -55 -14 -58 -14 -120
14 -66 29 -82 47 -63 69 16 20 77 37 107 30 24 -6 25 -5 8 5 -11 7 -40 14 -65
16 -56 4 -85 23 -106 67 -27 57 -19 70 50 77 52 5 55 6 20 9 -39 3 -83 2 -135
-3 -17 -1 -26 4 -28 18 -3 11 -13 31 -23 44 -25 31 -10 52 22 33 11 -7 32 -17
47 -23 l27 -9 -25 20 c-14 11 -36 23 -50 26 -43 9 -55 20 -55 50 0 24 5 30 27
32 21 3 62 31 47 32 -2 1 -40 4 -84 7 -102 7 -115 14 -115 61 0 54 -17 75 -24
31 -3 -19 -5 -43 -3 -54 2 -22 -31 -32 -61 -19 -9 4 -23 6 -30 5 -8 -1 -20 3
-27 9 -8 7 -34 10 -57 8 -40 -3 -43 -1 -46 25 -4 32 -6 33 -32 7 l-20 -20 -35
27 c-19 16 -35 33 -35 40 0 6 -6 14 -12 16 -7 3 -4 6 8 6 11 1 25 -4 32 -11 6
-6 15 -9 19 -5 12 13 -31 36 -67 37 -27 0 -39 6 -54 29 -11 16 -25 27 -31 25
-16 -7 -69 47 -91 92 -25 50 -47 59 -32 12z m128 -143 c7 -9 8 -15 2 -15 -5 0
-12 7 -16 15 -3 8 -4 15 -2 15 2 0 9 -7 16 -15z m-60 -15 c0 -5 -2 -10 -4 -10
-3 0 -8 5 -11 10 -3 6 -1 10 4 10 6 0 11 -4 11 -10z m-650 -18 c0 -5 -9 -17
-20 -27 -16 -15 -23 -16 -33 -6 -9 10 -8 15 7 27 22 16 46 19 46 6z m-141 -46
c-22 -32 -39 -39 -39 -15 0 14 50 62 57 55 3 -3 -5 -21 -18 -40z m68 -22 c-3
-3 -12 -4 -19 -1 -8 3 -5 6 6 6 11 1 17 -2 13 -5z m-222 -29 c0 -10 -6 -20
-12 -22 -8 -3 -13 5 -13 22 0 17 5 25 13 23 6 -3 12 -13 12 -23z m1135 -5 c0
-5 -2 -10 -4 -10 -3 0 -8 5 -11 10 -3 6 -1 10 4 10 6 0 11 -4 11 -10z m-1402
-86 c4 -33 -11 -24 -23 15 -5 17 -4 22 6 19 8 -3 15 -18 17 -34z m54 -1 c19
-17 24 -43 9 -43 -10 0 -26 19 -34 43 -8 21 1 22 25 0z m1793 -38 c0 -13 -9
-19 -32 -21 -18 -2 -33 1 -33 6 0 6 7 10 15 10 9 0 18 7 22 15 7 21 28 13 28
-10z m-1617 -3 c6 -18 -15 -14 -22 4 -4 10 -1 14 6 12 6 -2 14 -10 16 -16z
m-198 -1 c0 -5 3 -18 6 -28 5 -16 4 -16 -10 1 -18 23 -20 36 -6 36 6 0 10 -4
10 -9z m-47 -100 c14 -24 14 -31 3 -46 -22 -31 -46 -12 -44 35 2 47 17 51 41
11z m1827 14 c0 -8 -4 -15 -10 -15 -5 0 -10 7 -10 15 0 8 5 15 10 15 6 0 10
-7 10 -15z m50 -11 c0 -17 -22 -14 -28 4 -2 7 3 12 12 12 9 0 16 -7 16 -16z
m-2050 -106 c0 -4 -7 -8 -15 -8 -8 0 -15 4 -15 9 0 5 -3 18 -7 28 -6 17 -5 17
15 -1 12 -11 22 -23 22 -28z m2190 -34 c0 -8 -4 -12 -10 -9 -5 3 -10 10 -10
16 0 5 5 9 10 9 6 0 10 -7 10 -16z m-2090 -4 c0 -5 -5 -10 -11 -10 -5 0 -7 5
-4 10 3 6 8 10 11 10 2 0 4 -4 4 -10z m2140 -60 c0 -5 -2 -10 -4 -10 -3 0 -8
5 -11 10 -3 6 -1 10 4 10 6 0 11 -4 11 -10z m-2313 -115 c15 -23 18 -37 11
-41 -14 -9 -48 32 -48 57 0 28 12 23 37 -16z m2283 -220 c0 -8 -2 -15 -4 -15
-2 0 -6 7 -10 15 -3 8 -1 15 4 15 6 0 10 -7 10 -15z m246 -12 c-8 -8 -36 5
-36 17 0 7 6 7 21 0 11 -7 18 -14 15 -17z m-423 -130 c-7 -2 -19 -2 -25 0 -7
3 -2 5 12 5 14 0 19 -2 13 -5z m-263 -283 c0 -5 -4 -10 -10 -10 -5 0 -10 5
-10 10 0 6 5 10 10 10 6 0 10 -4 10 -10z m-770 -161 c0 -10 -9 -24 -20 -31
-11 -7 -20 -22 -20 -32 0 -34 -17 -4 -22 39 -5 39 -5 40 28 42 27 1 34 -2 34
-18z m107 -141 c-3 -8 -6 -5 -6 6 -1 11 2 17 5 13 3 -3 4 -12 1 -19z m278 13
c3 -5 1 -12 -5 -16 -5 -3 -10 1 -10 9 0 18 6 21 15 7z m-249 -478 c114 -244
134 -276 180 -286 21 -4 44 -16 51 -27 8 -11 20 -17 28 -14 11 5 15 -1 15 -23
0 -21 8 -33 31 -47 17 -10 39 -16 50 -13 25 7 33 -7 14 -23 -8 -7 -15 -19 -15
-26 0 -16 -36 -19 -45 -3 -4 6 -14 8 -22 5 -8 -3 -25 1 -38 10 -46 30 -56 -3
-30 -90 22 -74 21 -78 -22 -70 -21 4 -45 12 -53 19 -8 7 -25 15 -37 19 -13 3
-33 9 -44 12 -14 4 -19 2 -15 -5 10 -16 -3 -13 -20 4 -9 8 -26 15 -40 15 -14
0 -24 6 -24 15 0 9 -6 12 -15 9 -25 -10 -48 59 -40 120 4 28 7 81 6 118 0 37
4 70 10 73 13 9 11 25 -3 23 -14 -4 -31 66 -17 70 6 3 6 9 1 15 -5 7 -12 24
-16 39 -3 14 -9 34 -13 44 -4 12 -3 15 6 10 8 -5 10 0 7 18 -3 14 0 26 5 26 6
0 7 5 4 10 -9 14 36 29 57 19 9 -5 29 -35 44 -66z m389 -321 c-3 -3 -11 0 -18
7 -9 10 -8 11 6 5 10 -3 15 -9 12 -12z m959 -180 c6 -10 -5 -85 -11 -78 -3 2
-4 6 -2 8 1 2 -3 13 -9 25 -17 31 4 74 22 45z m-22 -114 c-9 -9 -12 -7 -12 12
0 19 3 21 12 12 9 -9 9 -15 0 -24z m-830 -28 c-4 -25 -1 -32 17 -37 11 -3 21
-13 20 -22 0 -10 -2 -11 -6 -3 -2 6 -9 12 -14 12 -17 0 -50 41 -42 53 4 7 8
15 9 20 1 4 2 10 3 13 0 3 5 3 9 0 5 -3 7 -19 4 -36z m509 7 c-10 -9 -11 -8
-5 6 3 10 9 15 12 12 3 -3 0 -11 -7 -18z m-21 -33 c0 -8 -4 -12 -10 -9 -5 3
-10 10 -10 16 0 5 5 9 10 9 6 0 10 -7 10 -16z m-707 -21 c9 -3 17 -11 17 -18
0 -7 6 -15 14 -18 27 -11 153 -173 170 -220 18 -47 14 -79 -5 -44 -6 9 -18 17
-27 17 -10 0 -26 9 -35 21 -11 12 -25 18 -34 15 -8 -4 -22 -1 -29 5 -11 9 -14
8 -14 -5 0 -18 -21 -21 -36 -6 -5 5 -27 13 -49 18 -22 5 -39 13 -38 19 1 5
-11 7 -28 5 -17 -3 -29 0 -29 7 0 6 -11 16 -25 21 -24 9 -33 25 -17 32 16 7
62 76 62 93 0 27 51 77 70 69 8 -3 23 -9 33 -11z m725 -40 c6 -15 12 -36 11
-47 0 -15 -3 -13 -10 8 -4 17 -15 34 -24 39 -8 4 -13 12 -10 18 10 15 19 10
33 -18z m-118 -23 c0 -5 -7 -10 -16 -10 -8 0 -12 5 -9 10 3 6 10 10 16 10 5 0
9 -4 9 -10z m-772 -187 c4 -5 28 -20 55 -32 26 -13 47 -26 47 -31 0 -12 -47
-5 -64 9 -8 7 -20 10 -26 6 -5 -3 -10 -1 -10 5 0 7 -8 9 -20 5 -25 -8 -102 15
-97 29 7 21 102 29 115 9z m-69 -247 c9 -10 9 -16 1 -21 -13 -8 -42 14 -34 26
8 13 20 11 33 -5z m71 -380 c6 -8 17 -13 24 -10 24 9 35 -19 17 -46 -19 -29
-61 -40 -61 -16 0 9 7 16 15 16 17 0 20 16 4 25 -6 4 -17 -3 -26 -14 -12 -18
-18 -20 -29 -10 -12 10 -17 8 -28 -6 -11 -16 -14 -16 -19 -2 -3 8 1 21 9 27 8
7 14 18 14 26 0 7 12 15 28 17 15 2 30 5 33 6 4 0 12 -5 19 -13z m100 -27 c0
-11 -4 -18 -10 -14 -5 3 -7 12 -3 20 7 21 13 19 13 -6z m640 -749 c0 -5 -2
-10 -4 -10 -3 0 -8 5 -11 10 -3 6 -1 10 4 10 6 0 11 -4 11 -10z m-40 -10 c0
-5 -7 -10 -16 -10 -8 0 -12 5 -9 10 3 6 10 10 16 10 5 0 9 -4 9 -10z m20 -98
c0 -24 -8 -32 -26 -25 -17 6 -18 30 -1 36 22 9 27 7 27 -11z m-490 -1132 c0
-5 -4 -10 -10 -10 -5 0 -10 5 -10 10 0 6 5 10 10 10 6 0 10 -4 10 -10z m-682
-243 c19 1 30 -2 26 -8 -3 -6 4 -7 20 -3 14 3 26 2 26 -2 0 -5 26 -9 57 -10
94 -2 100 -4 95 -36 -2 -15 -8 -28 -13 -28 -5 0 -9 -4 -9 -9 0 -5 10 -7 23 -4
21 4 21 3 -3 -11 l-25 -16 30 5 30 6 -30 -15 c-23 -11 -25 -14 -10 -14 28 0
115 -30 90 -31 -38 -2 -305 69 -395 105 -94 38 -113 51 -57 39 17 -4 29 -4 24
1 -4 4 1 16 10 26 13 15 24 17 47 11 17 -4 46 -7 64 -6z m4246 -862 c3 -8 1
-15 -4 -15 -6 0 -10 7 -10 15 0 8 2 15 4 15 2 0 6 -7 10 -15z m96 -91 c0 -8
-5 -12 -10 -9 -6 4 -8 11 -5 16 9 14 15 11 15 -7z"/>
<path d="M4791 9221 c-9 -6 -10 -11 -2 -15 6 -4 21 0 33 8 21 15 21 16 3 16
-11 0 -26 -4 -34 -9z"/>
<path d="M4996 7737 c3 -10 9 -15 12 -12 3 3 0 11 -7 18 -10 9 -11 8 -5 -6z"/>
<path d="M4886 7677 c3 -10 9 -15 12 -12 3 3 0 11 -7 18 -10 9 -11 8 -5 -6z"/>
<path d="M5417 6794 c-8 -8 1 -24 14 -24 5 0 9 7 9 15 0 15 -12 20 -23 9z"/>
<path d="M5460 6789 c0 -9 6 -22 13 -28 14 -11 27 -5 27 12 0 6 -3 7 -7 4 -3
-4 -12 1 -19 11 -12 15 -13 15 -14 1z"/>
<path d="M5565 6740 c-3 -5 -1 -10 4 -10 6 0 11 5 11 10 0 6 -2 10 -4 10 -3 0
-8 -4 -11 -10z"/>
<path d="M5380 6606 c0 -9 5 -16 10 -16 6 0 10 4 10 9 0 6 -4 13 -10 16 -5 3
-10 -1 -10 -9z"/>
<path d="M5678 6453 c7 -3 16 -2 19 1 4 3 -2 6 -13 5 -11 0 -14 -3 -6 -6z"/>
<path d="M6067 6304 c-9 -9 2 -24 17 -24 7 0 21 7 32 15 18 14 17 14 -12 15
-17 0 -34 -3 -37 -6z"/>
<path d="M5801 5344 c0 -11 3 -14 6 -6 3 7 2 16 -1 19 -3 4 -6 -2 -5 -13z"/>
<path d="M5800 5233 c0 -2 7 -11 15 -19 9 -9 15 -11 15 -4 0 6 5 8 12 4 6 -4
8 -3 5 3 -7 11 -47 25 -47 16z"/>
<path d="M5790 4980 c-13 -8 -12 -10 3 -10 9 0 17 5 17 10 0 12 -1 12 -20 0z"/>
<path d="M5820 4560 c-8 -5 -12 -11 -9 -14 2 -3 11 -1 19 4 8 5 12 11 9 14 -2
3 -11 1 -19 -4z"/>
<path d="M5933 3724 c-3 -8 -12 -13 -19 -10 -8 3 -14 1 -14 -4 0 -18 35 -10
48 10 7 13 8 20 2 20 -6 0 -13 -7 -17 -16z"/>
</g>
</svg>
